<?xml version="1.0" encoding="utf-8"?>
<!-- Generator: Adobe Illustrator 14.0.0, SVG Export Plug-In . SVG Version: 6.00 Build 43363)  -->
<!DOCTYPE svg PUBLIC "-//W3C//DTD SVG 1.1//EN" "http://www.w3.org/Graphics/SVG/1.1/DTD/svg11.dtd">
<svg version="1.1" id="Layer_1" xmlns="http://www.w3.org/2000/svg" xmlns:xlink="http://www.w3.org/1999/xlink" x="0px" y="0px"
	 width="800px" height="500px" viewBox="0 0 800 500" enable-background="new 0 0 800 500" xml:space="preserve">
<g>
	<g>
		<g>
			<path fill="#F27126" stroke="#F67124" stroke-width="1.2056" d="M72.186,286.923H37.233v9.63h33.272
				c5.099,0,8.594,0.731,10.493,2.172c1.895,1.436,2.841,4.254,2.841,8.42v6.162c0,4.17-0.946,6.957-2.841,8.423
				c-1.885,1.44-5.376,2.173-10.462,2.173H37.644c-5.091,0-8.577-0.732-10.47-2.173c-1.885-1.466-2.833-4.253-2.833-8.423v-1.229
				l10.933-1.91v5.31h37.632v-10.238h-33.2c-5.085,0-8.555-0.735-10.411-2.171c-1.856-1.44-2.789-4.26-2.789-8.425v-4.962
				c0-4.164,0.932-6.955,2.789-8.418c1.856-1.441,5.326-2.146,10.411-2.146h30.213c4.879,0,8.297,0.677,10.257,2.083
				c1.96,1.38,2.942,3.965,2.942,7.721v0.938l-10.934,2.174V286.923z"/>
			<path fill="#F27126" stroke="#F67124" stroke-width="1.2056" d="M109.511,323.902v-44.784h12.376v44.784H109.511z"/>
			<path fill="#F27126" stroke="#F67124" stroke-width="1.2056" d="M149.106,323.902v-44.784h45.574
				c7.975,0,11.966,2.876,11.966,8.659v10.508c0,5.776-3.992,8.686-11.966,8.686h-7.009l24.535,16.932h-17.733l-21.446-16.932
				h-11.754v16.932H149.106z M189.109,286.751h-27.835v12.589h27.835c1.931,0,3.266-0.18,4.03-0.531
				c1.027-0.523,1.542-1.551,1.542-3.047v-5.433c0-1.524-0.515-2.522-1.542-3.054C192.375,286.923,191.04,286.751,189.109,286.751z"
				/>
			<path fill="#F27126" stroke="#F67124" stroke-width="1.2056" d="M230.669,289.682c0-4.164,0.923-6.955,2.779-8.418
				c1.856-1.441,5.327-2.146,10.421-2.146h39.177c5.092,0,8.563,0.704,10.421,2.146c1.855,1.463,2.779,4.254,2.779,8.418v23.625
				c0,4.17-0.923,6.957-2.779,8.423c-1.857,1.44-5.329,2.173-10.421,2.173h-39.177c-5.094,0-8.565-0.732-10.421-2.173
				c-1.855-1.466-2.779-4.253-2.779-8.423V289.682z M243.04,315.478h40.835v-28.376H243.04V315.478z"/>
			<path fill="#F27126" stroke="#F67124" stroke-width="1.2056" d="M322.336,323.902v-44.784h12.474v18.636l29.485-18.636h17.948
				l-35.269,21.069l39.596,23.715h-19.895l-31.865-19.723v19.723H322.336z"/>
			<path fill="#F27126" stroke="#F67124" stroke-width="1.2056" d="M404.209,323.902v-44.784h12.478v18.636l29.492-18.636h17.932
				l-35.26,21.069l39.591,23.715h-19.896l-31.859-19.723v19.723H404.209z"/>
			<path fill="#F27126" stroke="#F67124" stroke-width="1.2056" d="M484.949,289.682c0-4.164,0.927-6.955,2.774-8.418
				c1.866-1.441,5.326-2.146,10.417-2.146h39.178c5.092,0,8.558,0.704,10.423,2.146c1.85,1.463,2.785,4.254,2.785,8.418v23.625
				c0,4.17-0.936,6.957-2.785,8.423c-1.865,1.44-5.331,2.173-10.423,2.173h-39.178c-5.091,0-8.551-0.732-10.417-2.173
				c-1.848-1.466-2.774-4.253-2.774-8.423V289.682z M497.32,315.478h40.825v-28.376H497.32V315.478z"/>
		</g>
		<g>
			<path fill="#767778" d="M42.473,367.603c-12.849,0-14.294-3.17-14.294-14.705c0-12.41,1.973-14.821,14.241-14.821
				c12.893,0,14.199,3.143,14.199,14.821C56.619,364.548,55.268,367.603,42.473,367.603z M42.419,341.867
				c-8.159,0-9.074,1.082-9.074,11.03c0,9.396,0.675,10.892,9.127,10.892c8.641,0,8.979-1.586,8.979-10.892
				C51.452,343.833,51.356,341.867,42.419,341.867z"/>
			<path fill="#767778" d="M75.217,367.603c-3.191,0-6.236-0.792-6.236-0.792v5.253c0,0.558,0.104,0.702,0.682,0.792l2.076,0.387
				v2.694H61.4v-2.694l2.13-0.387c0.527-0.09,0.675-0.234,0.675-0.792v-21.069c0-0.592-0.148-0.71-0.675-0.792l-2.13-0.386v-2.696
				h6.474l0.198,1.435c0.044,0.297,0.189,0.82,0.96,0.82c0.485,0,0.874-0.234,1.255-0.435l3.043-1.938c0,0,1.688-0.151,2.9-0.151
				c7.579,0,9.412,2.881,9.412,10.306C85.642,364.609,83.764,367.603,75.217,367.603z M74.974,350.284
				c-2.896,0-5.993,0.56-5.993,0.56v12.884c0,0,2.56,0.442,5.848,0.442c4.879,0,5.934-1.116,5.934-6.985
				C80.763,351.636,79.75,350.284,74.974,350.284z"/>
			<path fill="#767778" d="M112.687,358.564c-1.591,0.056-4.681,0.352-8.304,0.352c-3.428,0-5.072-0.263-5.072-0.263l-2.076-1.295
				c-0.338-0.201-0.527-0.353-0.969-0.353c-0.622,0-0.915,0.386-0.915,0.973v0.91c0,1.317,0.337,2.847,1.306,3.841
				c1.496,1.44,4.299,1.44,6.281,1.44c2.942,0,5.258-0.381,7.966-0.822l0.625,3.11c0,0-3.91,1.145-9.078,1.145
				c-7.628,0-11.974-1.469-11.974-10.39c0-2.551,0.436-5.074,1.206-6.632c1.546-2.991,4.974-3.729,10.191-3.729
				c8.452,0,10.961,1.821,10.961,8.865C112.834,356.449,112.782,357.157,112.687,358.564z M102.113,350.141
				c-6.28,0-6.425,0.938-6.713,5.254c2.942,0.411,6.419,0.261,6.419,0.261s3.531,0.089,6.091-0.117
				C107.911,350.67,106.7,350.141,102.113,350.141z"/>
			<path fill="#767778" d="M133.744,367.312v-2.702l2.126-0.379c0.53-0.089,0.676-0.234,0.676-0.793v-8.513
				c0-4.02-0.916-4.641-5.407-4.641c-2.37,0-4.834,0.358-5.943,0.531v12.622c0,0.559,0.096,0.704,0.676,0.793l2.077,0.379v2.702
				h-10.331v-2.702l2.119-0.379c0.535-0.089,0.675-0.234,0.675-0.793v-12.443c0-0.592-0.14-0.71-0.675-0.792l-2.119-0.386v-2.696
				h6.47l0.189,1.435c0.053,0.297,0.192,0.82,0.969,0.82c0.477,0,0.865-0.234,1.256-0.435l3.037-1.91c0,0,1.982-0.179,2.855-0.179
				c6.998,0,8.929,1.614,8.929,7.721v8.865c0,0.559,0.095,0.704,0.673,0.793l2.076,0.379v2.702H133.744z"/>
			<path fill="#767778" d="M160.305,366.43l0.578-3.818c0,0,6.231,1.089,11.256,1.089c3.718,0,8.062,0,8.062-4.434
				c0-4.516-2.266-4.136-7.533-4.432c-7.244-0.441-13.039-0.291-13.039-8.156c0-6.783,4.006-8.603,12.551-8.603
				c5.988,0,11.353,1.089,11.353,1.089l-0.676,3.784c0,0-5.649-0.998-9.853-0.998c-3.766,0-8.4-0.174-8.4,4.17
				c0,4.281,3.288,4.081,7.726,4.253c7.051,0.296,12.942,0.089,12.942,8.19c0,7.865-4.924,9.038-12.555,9.038
				C166.005,367.603,160.305,366.43,160.305,366.43z"/>
			<path fill="#767778" d="M201.597,367.603c-9.368,0-11.057-1.821-11.057-10.39c0-8.54,1.689-10.361,11.057-10.361
				c9.415,0,11.059,1.821,11.059,10.361C212.656,365.781,211.012,367.603,201.597,367.603z M201.597,350.141
				c-5.597,0-6.177,0.765-6.177,7.072c0,6.342,0.58,7.074,6.177,7.074c5.649,0,6.18-0.732,6.18-7.074
				C207.777,350.905,207.246,350.141,201.597,350.141z"/>
			<path fill="#767778" d="M236.8,367.312l-0.242-1.44c-0.042-0.322-0.191-0.82-0.96-0.82c-0.483,0-0.874,0.207-1.252,0.408
				l-2.997,1.908c0,0-1.598,0.179-2.464,0.179c-7.002,0-8.886-1.586-8.886-7.721v-8.831c0-0.592-0.147-0.71-0.674-0.792
				l-2.127-0.386v-2.696h7.587v12.409c0,4.025,0.864,4.641,5.353,4.641c2.364,0,4.491-0.353,5.649-0.531v-12.645
				c0-0.592-0.146-0.71-0.673-0.792l-2.129-0.386v-2.696h7.585v16.317c0,0.559,0.096,0.704,0.676,0.793l2.077,0.379v2.702H236.8z"/>
			<path fill="#767778" d="M265.877,350.994c0,0-2.171-0.179-3.771-0.179c-4.005,0-6.808,0.38-6.808,0.38v12.242
				c0,0.559,0.146,0.704,0.726,0.793l2.077,0.379v2.702h-10.33v-2.702l2.12-0.379c0.533-0.089,0.673-0.234,0.673-0.793v-12.443
				c0-0.592-0.14-0.71-0.673-0.792l-2.12-0.386v-2.696h6.176l0.293,1.787c0.045,0.295,0.193,0.825,0.964,0.825
				c0.481,0,0.871-0.24,1.252-0.441l3.479-2.232c0,0,1.4-0.207,3.477-0.207c1.063,0,2.803,0.179,2.803,0.179L265.877,350.994z"/>
			<path fill="#767778" d="M279.693,367.603c-8.073,0-11.063-2.054-11.063-10.39c0-8.306,2.991-10.361,11.063-10.361
				c4.344,0,8.591,0.827,8.591,0.827l-0.58,3.254c0,0-3.285-0.559-6.807-0.559c-6.42,0-7.39,1.028-7.39,6.839
				c0,5.784,0.969,6.957,7.39,6.957c3.522,0,6.807-0.615,6.807-0.615l0.58,3.166C288.285,366.721,285.05,367.603,279.693,367.603z"
				/>
			<path fill="#767778" d="M315.329,358.564c-1.593,0.056-4.689,0.352-8.306,0.352c-3.426,0-5.069-0.263-5.069-0.263l-2.076-1.295
				c-0.338-0.201-0.537-0.353-0.969-0.353c-0.622,0-0.915,0.386-0.915,0.973v0.91c0,1.317,0.334,2.847,1.304,3.841
				c1.498,1.44,4.3,1.44,6.273,1.44c2.951,0,5.267-0.381,7.969-0.822l0.631,3.11c0,0-3.909,1.145-9.077,1.145
				c-7.631,0-11.98-1.469-11.98-10.39c0-2.551,0.438-5.074,1.209-6.632c1.549-2.991,4.975-3.729,10.191-3.729
				c8.446,0,10.96,1.821,10.96,8.865C315.475,356.449,315.425,357.157,315.329,358.564z M304.747,350.141
				c-6.271,0-6.418,0.938-6.704,5.254c2.942,0.411,6.42,0.261,6.42,0.261s3.522,0.089,6.082-0.117
				C310.545,350.67,309.342,350.141,304.747,350.141z"/>
			<path fill="#767778" d="M332.233,366.43l0.582-3.818c0,0,6.228,1.089,11.246,1.089c3.72,0,8.064,0,8.064-4.434
				c0-4.516-2.268-4.136-7.528-4.432c-7.242-0.441-13.039-0.291-13.039-8.156c0-6.783,4.006-8.603,12.555-8.603
				c5.988,0,11.35,1.089,11.35,1.089l-0.676,3.784c0,0-5.655-0.998-9.853-0.998c-3.762,0-8.4-0.174-8.4,4.17
				c0,4.281,3.278,4.081,7.726,4.253c7.049,0.296,12.937,0.089,12.937,8.19c0,7.865-4.924,9.038-12.555,9.038
				C337.937,367.603,332.233,366.43,332.233,366.43z"/>
			<path fill="#767778" d="M373.527,367.603c-9.378,0-11.064-1.821-11.064-10.39c0-8.54,1.686-10.361,11.064-10.361
				c9.408,0,11.048,1.821,11.048,10.361C384.575,365.781,382.935,367.603,373.527,367.603z M373.527,350.141
				c-5.604,0-6.177,0.765-6.177,7.072c0,6.342,0.573,7.074,6.177,7.074c5.651,0,6.179-0.732,6.179-7.074
				C379.706,350.905,379.178,350.141,373.527,350.141z"/>
			<path fill="#767778" d="M388.891,367.312v-2.702l2.113-0.379c0.527-0.089,0.675-0.234,0.675-0.793v-21.19
				c0-0.559-0.147-0.677-0.675-0.766l-2.113-0.407V338.4h7.573v25.037c0,0.559,0.086,0.704,0.675,0.793l2.083,0.379v2.702H388.891z"
				/>
			<path fill="#767778" d="M423.066,367.312l-0.234-1.44c-0.057-0.322-0.189-0.82-0.966-0.82c-0.485,0-0.865,0.207-1.262,0.408
				l-2.998,1.908c0,0-1.578,0.179-2.462,0.179c-6.982,0-8.859-1.586-8.859-7.721v-8.831c0-0.592-0.15-0.71-0.691-0.792l-2.11-0.386
				v-2.696h7.57v12.409c0,4.025,0.86,4.641,5.353,4.641c2.38,0,4.495-0.353,5.667-0.531v-12.645c0-0.592-0.146-0.71-0.692-0.792
				l-2.127-0.386v-2.696h7.587v16.317c0,0.559,0.09,0.704,0.675,0.793l2.084,0.379v2.702H423.066z"/>
			<path fill="#767778" d="M443.068,367.457c-5.899,0-6.614-2.025-6.614-6.66v-10.423h-4.489v-3.254h4.489v-5.371h4.778v5.371h6.666
				v3.254h-6.666v11.065c0,2.261,0.278,2.848,3.044,2.848c1.055,0,3.197-0.324,3.197-0.324l0.425,2.908
				C447.898,366.871,445.62,367.457,443.068,367.457z"/>
			<path fill="#767778" d="M452.342,367.312v-2.702l2.115-0.379c0.543-0.089,0.687-0.234,0.687-0.793v-12.443
				c0-0.592-0.144-0.71-0.687-0.792l-2.115-0.386v-2.696h7.575v16.317c0,0.559,0.102,0.704,0.676,0.793l2.082,0.379v2.702H452.342z
				 M454.073,343.419V338.4h5.844v5.019H454.073z"/>
			<path fill="#767778" d="M478.273,367.603c-9.362,0-11.048-1.821-11.048-10.39c0-8.54,1.686-10.361,11.048-10.361
				c9.417,0,11.063,1.821,11.063,10.361C489.337,365.781,487.69,367.603,478.273,367.603z M478.273,350.141
				c-5.605,0-6.181,0.765-6.181,7.072c0,6.342,0.575,7.074,6.181,7.074c5.649,0,6.179-0.732,6.179-7.074
				C484.452,350.905,483.923,350.141,478.273,350.141z"/>
			<path fill="#767778" d="M510.249,367.312v-2.702l2.127-0.379c0.525-0.089,0.676-0.234,0.676-0.793v-8.513
				c0-4.02-0.921-4.641-5.414-4.641c-2.362,0-4.829,0.358-5.947,0.531v12.622c0,0.559,0.107,0.704,0.682,0.793l2.076,0.379v2.702
				h-10.327v-2.702l2.111-0.379c0.547-0.089,0.692-0.234,0.692-0.793v-12.443c0-0.592-0.146-0.71-0.692-0.792l-2.111-0.386v-2.696
				h6.471l0.194,1.435c0.046,0.297,0.191,0.82,0.968,0.82c0.485,0,0.863-0.234,1.244-0.435l3.054-1.91c0,0,1.97-0.179,2.848-0.179
				c7,0,8.921,1.614,8.921,7.721v8.865c0,0.559,0.104,0.704,0.685,0.793l2.078,0.379v2.702H510.249z"/>
			<path fill="#767778" d="M535.99,367.603c-6.14,0-10.675-0.882-10.675-0.882l0.574-3.49c0,0,5.121,0.911,9.571,0.911
				c4.237,0,5.982-0.794,5.982-2.702c0-2.612-1.935-2.145-6.424-2.378c-5.316-0.263-9.848,0-9.848-5.985
				c0-5.108,3.371-6.225,10.373-6.225c4.889,0,9.276,0.91,9.276,0.91l-0.529,3.316c0,0-4.388-0.759-8.642-0.759
				c-4.493,0-5.846,0.351-5.846,2.611c0,2.524,2.747,2.083,6.854,2.257c5.902,0.179,9.515,0.439,9.515,5.989
				C546.174,366.251,542.165,367.603,535.99,367.603z"/>
		</g>
	</g>
	<g>
		<polygon points="584.118,300.863 579.817,252.469 616.517,217.209 670.886,226.409 685.017,285.49 632.413,324.227 
			636.801,351.347 715.729,296.638 691.619,209.829 614.215,200.785 565.544,248.862 569.676,313.953 636.801,351.347 
			632.413,324.227 		"/>
		<polygon fill="#767676" points="531.938,220.67 531.424,187.521 556.646,157.28 588.8,156.678 593.317,194.36 561.373,228.112 
			561.973,244.194 609.799,195.961 601.857,142.208 556.337,144.82 522.592,186.009 522.592,231.529 561.973,244.194 
			561.373,228.112 		"/>
		<polygon fill="#F67124" points="630.412,179.376 623.295,139.758 661.543,97.101 721.264,86.55 739.942,132.069 685.104,182.691 
			692.061,203.945 775.66,129.958 744.096,64.1 658.722,82.793 608.039,141.007 616.033,195.213 692.061,203.945 685.104,182.691 		
			"/>
	</g>
</g>
</svg>
